<?xml version="1.0" encoding="utf-8"?>
<!-- Generator: Adobe Illustrator 25.2.3, SVG Export Plug-In . SVG Version: 6.00 Build 0)  -->
<svg version="1.1" id="Layer_31" xmlns="http://www.w3.org/2000/svg" xmlns:xlink="http://www.w3.org/1999/xlink" x="0px" y="0px"
	 viewBox="0 0 64 64" style="enable-background:new 0 0 64 64;" xml:space="preserve">
<g id="Code">
	<g>
		<path d="M55,8h-3V5c0-1.654-1.346-3-3-3H23c-0.265,0-0.52,0.105-0.707,0.293l-16,16C6.105,18.48,6,18.735,6,19v34
			c0,1.654,1.346,3,3,3h3v3c0,1.654,1.346,3,3,3h40c1.654,0,3-1.346,3-3V11C58,9.346,56.654,8,55,8z M22,5.414V17
			c0,0.551-0.449,1-1,1H9.414L22,5.414z M8,53V20h13c1.654,0,3-1.346,3-3V4h25c0.552,0,1,0.449,1,1v48c0,0.551-0.448,1-1,1H9
			C8.449,54,8,53.551,8,53z M56,59c0,0.551-0.448,1-1,1H15c-0.551,0-1-0.449-1-1v-3h35c1.654,0,3-1.346,3-3V10h3
			c0.552,0,1,0.449,1,1V59z"/>
		<path d="M31.165,22.014c-0.545-0.088-1.06,0.278-1.151,0.822l-4,24c-0.091,0.545,0.277,1.06,0.822,1.151
			C26.891,47.996,26.947,48,27.001,48c0.48,0,0.904-0.347,0.985-0.835l4-24C32.077,22.62,31.709,22.104,31.165,22.014z"/>
		<path d="M35.625,26.219c-0.432-0.345-1.061-0.274-1.406,0.156c-0.345,0.431-0.274,1.061,0.156,1.405L43.399,35l-9.024,7.219
			c-0.431,0.345-0.501,0.974-0.156,1.405C34.417,43.872,34.707,44,35.001,44c0.219,0,0.439-0.072,0.624-0.219l10-8
			C45.862,35.591,46,35.304,46,35s-0.138-0.591-0.375-0.781L35.625,26.219z"/>
		<path d="M23.781,26.375c-0.345-0.432-0.975-0.501-1.405-0.156l-10,8C12.138,34.409,12,34.696,12,35s0.138,0.591,0.375,0.781l10,8
			C22.56,43.928,22.78,44,23,44c0.293,0,0.584-0.128,0.781-0.375c0.345-0.431,0.275-1.061-0.156-1.405L14.601,35l9.024-7.219
			C24.056,27.436,24.126,26.807,23.781,26.375z"/>
	</g>
</g>
</svg>
